<?xml version="1.0" encoding="UTF-8"?>
<!DOCTYPE svg PUBLIC "-//W3C//DTD SVG 1.1//EN" "http://www.w3.org/Graphics/SVG/1.1/DTD/svg11.dtd">
<svg version="1.1" xmlns="http://www.w3.org/2000/svg" xmlns:xlink="http://www.w3.org/1999/xlink" x="0" y="0" width="14" height="14" viewBox="0, 0, 14, 14">
  <g id="Page-1">
    <path d="M2,0 L12,0 C13.105,0 14,0.895 14,2 L14,12 C14,13.105 13.105,14 12,14 L2,14 C0.895,14 0,13.105 0,12 L0,2 C0,0.895 0.895,0 2,0 z M6.776,1.016 C5.2,1.884 3.895,3.228 3.064,4.821 C2.706,5.47 2.504,6.206 2.501,6.947 C2.486,7.756 2.702,8.566 3.114,9.261 C3.558,10.018 4.229,10.64 5.021,11.02 C5.76,11.381 6.602,11.526 7.42,11.445 C7.459,11.443 7.505,11.432 7.532,11.469 C7.539,11.55 7.517,11.629 7.5,11.708 C7.414,12.087 7.255,12.451 7.028,12.767 C6.984,12.819 6.966,12.899 7.01,12.956 C7.047,13.01 7.126,13.009 7.18,12.983 C8.865,12.049 10.242,10.576 11.059,8.835 C11.444,7.982 11.552,7.007 11.359,6.091 C11.186,5.245 10.756,4.455 10.144,3.844 C9.531,3.228 8.733,2.797 7.879,2.625 C7.409,2.525 6.925,2.517 6.449,2.558 C6.425,2.551 6.402,2.544 6.379,2.535 C6.364,2.489 6.378,2.44 6.425,2.421 C6.502,2.003 6.665,1.599 6.91,1.252 C6.945,1.203 6.987,1.146 6.963,1.083 C6.94,1.007 6.843,0.979 6.776,1.016 z M6.731,5.272 C7.183,5.206 7.66,5.328 8.024,5.605 C8.604,6.027 8.87,6.826 8.648,7.509 C8.53,7.902 8.265,8.249 7.918,8.469 C7.576,8.69 7.155,8.785 6.752,8.731 C6.356,8.681 5.978,8.49 5.706,8.198 C5.395,7.874 5.215,7.424 5.229,6.974 C5.227,6.639 5.338,6.308 5.523,6.029 C5.795,5.622 6.244,5.337 6.731,5.272 z" fill="#FFFFFF" id="Combined-Shape"/>
  </g>
</svg>